<?xml version="1.0" encoding="utf-8" standalone="no"?>
<!DOCTYPE svg PUBLIC "-//W3C//DTD SVG 1.1//EN"
  "http://www.w3.org/Graphics/SVG/1.1/DTD/svg11.dtd">
<!-- Created with matplotlib (https://matplotlib.org/) -->
<svg height="576pt" version="1.1" viewBox="0 0 1440 576" width="1440pt" xmlns="http://www.w3.org/2000/svg" xmlns:xlink="http://www.w3.org/1999/xlink">
 <defs>
  <style type="text/css">
*{stroke-linecap:butt;stroke-linejoin:round;}
  </style>
 </defs>
 <g id="figure_1">
  <g id="patch_1">
   <path d="M 0 576 
L 1440 576 
L 1440 0 
L 0 0 
z
" style="fill:#ffffff;"/>
  </g>
  <g id="axes_1">
   <g id="patch_2">
    <path d="M 180 512.64 
L 1296 512.64 
L 1296 69.12 
L 180 69.12 
z
" style="fill:#ffffff;"/>
   </g>
   <g id="matplotlib.axis_1">
    <g id="xtick_1">
     <g id="line2d_1">
      <path clip-path="url(#p88035e73b4)" d="M 230.727273 512.64 
L 230.727273 69.12 
" style="fill:none;stroke:#b0b0b0;stroke-linecap:square;stroke-width:0.8;"/>
     </g>
     <g id="line2d_2">
      <defs>
       <path d="M 0 0 
L 0 3.5 
" id="m9208a4f27a" style="stroke:#000000;stroke-width:0.8;"/>
      </defs>
      <g>
       <use style="stroke:#000000;stroke-width:0.8;" x="230.727273" xlink:href="#m9208a4f27a" y="512.64"/>
      </g>
     </g>
     <g id="text_1">
      <!-- 10点0分 -->
      <defs>
       <path d="M 42.4375 77.296875 
L 42.4375 0 
L 26.5625 0 
L 26.5625 59.515625 
Q 23.640625 56.984375 18.5625 54.953125 
Q 13.484375 52.9375 9.234375 52.4375 
L 9.234375 65.96875 
Q 22.609375 69.875 32.375 77.296875 
z
" id="MicrosoftYaHei-Bold-49"/>
       <path d="M 3.8125 36.578125 
Q 3.8125 56.203125 11.03125 66.546875 
Q 18.265625 76.90625 31.9375 76.90625 
Q 58.015625 76.90625 58.015625 38.328125 
Q 58.015625 19.34375 50.921875 9.015625 
Q 43.84375 -1.3125 30.46875 -1.3125 
Q 3.8125 -1.3125 3.8125 36.578125 
z
M 19.78125 36.96875 
Q 19.78125 10.796875 30.953125 10.796875 
Q 41.9375 10.796875 41.9375 37.75 
Q 41.9375 64.796875 31.25 64.796875 
Q 19.78125 64.796875 19.78125 36.96875 
z
" id="MicrosoftYaHei-Bold-48"/>
       <path d="M 12.890625 54.734375 
L 41.796875 54.734375 
L 41.796875 83.0625 
L 55.671875 83.0625 
L 55.671875 74.859375 
L 96.578125 74.859375 
L 96.578125 62.546875 
L 55.671875 62.546875 
L 55.671875 54.734375 
L 88.671875 54.734375 
L 88.671875 17.625 
L 12.890625 17.625 
z
M 74.421875 42.828125 
L 27.15625 42.828125 
L 27.15625 29.546875 
L 74.421875 29.546875 
z
M 86.71875 15.484375 
Q 92.875 3.859375 98.046875 -7.953125 
L 85.84375 -12.75 
Q 79.984375 0.53125 75 10.59375 
z
M 13.375 14.703125 
L 25.390625 9.625 
Q 20.703125 -0.640625 13.28125 -14.109375 
L 1.859375 -8.0625 
Q 8.59375 3.859375 13.375 14.703125 
z
M 64.265625 14.015625 
Q 68.5625 4.546875 72.859375 -6.5 
L 60.0625 -10.40625 
Q 56.453125 0.25 52.25 10.203125 
z
M 41.21875 13.03125 
Q 45.796875 0.921875 48.640625 -7.953125 
L 35.9375 -11.1875 
Q 31.9375 1.8125 29 9.71875 
z
" id="MicrosoftYaHei-Bold-28857"/>
       <path d="M 99.21875 47.3125 
Q 95.125 42.234375 89.84375 34.8125 
Q 86.234375 37.640625 82.859375 40.671875 
Q 81.546875 9.46875 80.8125 2.96875 
Q 80.078125 -3.515625 75.96875 -7.046875 
Q 71.875 -10.59375 64.5 -10.59375 
Q 54.4375 -10.59375 45.515625 -10.296875 
Q 44.625 -2.203125 43.453125 4.4375 
Q 56.15625 3.375 61.8125 3.375 
Q 65.1875 3.375 66.09375 6.375 
Q 67 9.375 67.578125 30.90625 
L 43.453125 30.90625 
Q 42.625 17.1875 39.515625 9.859375 
Q 36.421875 2.546875 29.796875 -3.359375 
Q 23.1875 -9.28125 13.1875 -13.625 
Q 7.125 -5.515625 3.03125 -1.21875 
Q 11.71875 2.25 17.359375 6.46875 
Q 23 10.6875 25.46875 15.453125 
Q 27.9375 20.21875 28.765625 30.90625 
L 14.84375 30.90625 
L 14.84375 38.671875 
Q 12.40625 36.8125 9.859375 35.109375 
Q 5.375 41.453125 0.984375 46.140625 
Q 23.046875 61.671875 34.28125 83.0625 
L 47.359375 77.390625 
Q 37.15625 58.15625 21.734375 44.390625 
L 78.859375 44.390625 
Q 63.875 58.84375 54.109375 76.609375 
L 66.21875 82.859375 
Q 78.71875 61.28125 99.21875 47.3125 
z
" id="MicrosoftYaHei-Bold-20998"/>
      </defs>
      <g transform="translate(219.062221 552.517151)rotate(-45)scale(0.1 -0.1)">
       <use xlink:href="#MicrosoftYaHei-Bold-49"/>
       <use x="61.669922" xlink:href="#MicrosoftYaHei-Bold-48"/>
       <use x="123.339844" xlink:href="#MicrosoftYaHei-Bold-28857"/>
       <use x="223.339844" xlink:href="#MicrosoftYaHei-Bold-48"/>
       <use x="285.009766" xlink:href="#MicrosoftYaHei-Bold-20998"/>
      </g>
     </g>
    </g>
    <g id="xtick_2">
     <g id="line2d_3">
      <path clip-path="url(#p88035e73b4)" d="M 256.304049 512.64 
L 256.304049 69.12 
" style="fill:none;stroke:#b0b0b0;stroke-linecap:square;stroke-width:0.8;"/>
     </g>
     <g id="line2d_4">
      <g>
       <use style="stroke:#000000;stroke-width:0.8;" x="256.304049" xlink:href="#m9208a4f27a" y="512.64"/>
      </g>
     </g>
     <g id="text_2">
      <!-- 10点3分 -->
      <defs>
       <path d="M 7.71875 16.453125 
Q 15.28125 10.796875 25.390625 10.796875 
Q 31.78125 10.796875 35.546875 13.625 
Q 39.3125 16.453125 39.3125 21.6875 
Q 39.3125 27.046875 34.84375 29.875 
Q 30.375 32.71875 22.3125 32.71875 
L 15.578125 32.71875 
L 15.578125 44.875 
L 21.78125 44.875 
Q 37.015625 44.875 37.015625 55.125 
Q 37.015625 64.796875 25.34375 64.796875 
Q 17.71875 64.796875 10.546875 59.8125 
L 10.546875 72.859375 
Q 18.359375 76.90625 28.953125 76.90625 
Q 39.703125 76.90625 46.390625 71.953125 
Q 53.078125 67 53.078125 58.203125 
Q 53.078125 43.359375 38.03125 39.546875 
L 38.03125 39.3125 
Q 45.953125 38.421875 50.6875 33.515625 
Q 55.421875 28.609375 55.421875 21.578125 
Q 55.421875 10.796875 47.53125 4.734375 
Q 39.65625 -1.3125 26.515625 -1.3125 
Q 14.84375 -1.3125 7.71875 2.546875 
z
" id="MicrosoftYaHei-Bold-51"/>
      </defs>
      <g transform="translate(244.638997 552.517151)rotate(-45)scale(0.1 -0.1)">
       <use xlink:href="#MicrosoftYaHei-Bold-49"/>
       <use x="61.669922" xlink:href="#MicrosoftYaHei-Bold-48"/>
       <use x="123.339844" xlink:href="#MicrosoftYaHei-Bold-28857"/>
       <use x="223.339844" xlink:href="#MicrosoftYaHei-Bold-51"/>
       <use x="285.009766" xlink:href="#MicrosoftYaHei-Bold-20998"/>
      </g>
     </g>
    </g>
    <g id="xtick_3">
     <g id="line2d_5">
      <path clip-path="url(#p88035e73b4)" d="M 281.880825 512.64 
L 281.880825 69.12 
" style="fill:none;stroke:#b0b0b0;stroke-linecap:square;stroke-width:0.8;"/>
     </g>
     <g id="line2d_6">
      <g>
       <use style="stroke:#000000;stroke-width:0.8;" x="281.880825" xlink:href="#m9208a4f27a" y="512.64"/>
      </g>
     </g>
     <g id="text_3">
      <!-- 10点6分 -->
      <defs>
       <path d="M 52.78125 61.53125 
Q 47.015625 64.796875 40.234375 64.796875 
Q 31.5 64.796875 26.25 57.9375 
Q 21 51.078125 21 40.1875 
L 21.296875 40.1875 
Q 26.703125 48.484375 37.359375 48.484375 
Q 46.875 48.484375 52.46875 41.96875 
Q 58.0625 35.453125 58.0625 25 
Q 58.0625 13.578125 50.78125 6.125 
Q 43.5 -1.3125 32.171875 -1.3125 
Q 19.1875 -1.3125 12.28125 8.0625 
Q 5.375 17.4375 5.375 33.734375 
Q 5.375 52.9375 14.328125 64.921875 
Q 23.296875 76.90625 39.265625 76.90625 
Q 47.859375 76.90625 52.78125 74.859375 
z
M 21.53125 24.859375 
Q 21.53125 19 24.453125 14.890625 
Q 27.390625 10.796875 32.171875 10.796875 
Q 37.015625 10.796875 39.796875 14.546875 
Q 42.578125 18.3125 42.578125 23.96875 
Q 42.578125 36.71875 32.078125 36.71875 
Q 27.34375 36.71875 24.4375 33.34375 
Q 21.53125 29.984375 21.53125 24.859375 
z
" id="MicrosoftYaHei-Bold-54"/>
      </defs>
      <g transform="translate(270.215773 552.517151)rotate(-45)scale(0.1 -0.1)">
       <use xlink:href="#MicrosoftYaHei-Bold-49"/>
       <use x="61.669922" xlink:href="#MicrosoftYaHei-Bold-48"/>
       <use x="123.339844" xlink:href="#MicrosoftYaHei-Bold-28857"/>
       <use x="223.339844" xlink:href="#MicrosoftYaHei-Bold-54"/>
       <use x="285.009766" xlink:href="#MicrosoftYaHei-Bold-20998"/>
      </g>
     </g>
    </g>
    <g id="xtick_4">
     <g id="line2d_7">
      <path clip-path="url(#p88035e73b4)" d="M 307.457601 512.64 
L 307.457601 69.12 
" style="fill:none;stroke:#b0b0b0;stroke-linecap:square;stroke-width:0.8;"/>
     </g>
     <g id="line2d_8">
      <g>
       <use style="stroke:#000000;stroke-width:0.8;" x="307.457601" xlink:href="#m9208a4f27a" y="512.64"/>
      </g>
     </g>
     <g id="text_4">
      <!-- 10点9分 -->
      <defs>
       <path d="M 8.5 14.703125 
Q 14.546875 10.796875 22.75 10.796875 
Q 41.0625 10.796875 41.453125 34.625 
L 41.15625 34.71875 
Q 36.1875 27.046875 25.78125 27.046875 
Q 16.359375 27.046875 10.28125 33.65625 
Q 4.203125 40.28125 4.203125 50.34375 
Q 4.203125 62.15625 11.515625 69.53125 
Q 18.84375 76.90625 30.609375 76.90625 
Q 42.875 76.90625 49.859375 67.578125 
Q 56.84375 58.25 56.84375 41.546875 
Q 56.84375 21.734375 48.40625 10.203125 
Q 39.984375 -1.3125 24.171875 -1.3125 
Q 15.234375 -1.3125 8.5 1.5625 
z
M 19.671875 51.765625 
Q 19.671875 45.75 22.578125 42.328125 
Q 25.484375 38.921875 30.515625 38.921875 
Q 35.015625 38.921875 37.921875 42.1875 
Q 40.828125 45.453125 40.828125 50.296875 
Q 40.828125 56.109375 37.921875 60.453125 
Q 35.015625 64.796875 30.125 64.796875 
Q 25.390625 64.796875 22.53125 61.03125 
Q 19.671875 57.28125 19.671875 51.765625 
z
" id="MicrosoftYaHei-Bold-57"/>
      </defs>
      <g transform="translate(295.792549 552.517151)rotate(-45)scale(0.1 -0.1)">
       <use xlink:href="#MicrosoftYaHei-Bold-49"/>
       <use x="61.669922" xlink:href="#MicrosoftYaHei-Bold-48"/>
       <use x="123.339844" xlink:href="#MicrosoftYaHei-Bold-28857"/>
       <use x="223.339844" xlink:href="#MicrosoftYaHei-Bold-57"/>
       <use x="285.009766" xlink:href="#MicrosoftYaHei-Bold-20998"/>
      </g>
     </g>
    </g>
    <g id="xtick_5">
     <g id="line2d_9">
      <path clip-path="url(#p88035e73b4)" d="M 333.034377 512.64 
L 333.034377 69.12 
" style="fill:none;stroke:#b0b0b0;stroke-linecap:square;stroke-width:0.8;"/>
     </g>
     <g id="line2d_10">
      <g>
       <use style="stroke:#000000;stroke-width:0.8;" x="333.034377" xlink:href="#m9208a4f27a" y="512.64"/>
      </g>
     </g>
     <g id="text_5">
      <!-- 10点12分 -->
      <defs>
       <path d="M 23.4375 13.140625 
L 55.515625 13.140625 
L 55.515625 0 
L 5.21875 0 
L 5.21875 5.609375 
Q 5.21875 11.53125 7.390625 16.40625 
Q 9.578125 21.296875 13.375 25.515625 
Q 17.1875 29.734375 25.203125 35.40625 
Q 32.515625 40.875 35.4375 45.09375 
Q 38.375 49.3125 38.375 54.046875 
Q 38.375 64.265625 27.25 64.265625 
Q 17.484375 64.265625 8.59375 56.453125 
L 8.59375 70.515625 
Q 18.5 76.90625 30.859375 76.90625 
Q 42.1875 76.90625 48.78125 71.109375 
Q 55.375 65.328125 55.375 55.171875 
Q 55.375 49.515625 53.46875 44.9375 
Q 51.5625 40.375 47.953125 36.375 
Q 44.34375 32.375 36.375 26.765625 
Q 28.71875 21.296875 26.078125 18.3125 
Q 23.4375 15.328125 23.4375 13.140625 
z
" id="MicrosoftYaHei-Bold-50"/>
      </defs>
      <g transform="translate(319.188895 556.878011)rotate(-45)scale(0.1 -0.1)">
       <use xlink:href="#MicrosoftYaHei-Bold-49"/>
       <use x="61.669922" xlink:href="#MicrosoftYaHei-Bold-48"/>
       <use x="123.339844" xlink:href="#MicrosoftYaHei-Bold-28857"/>
       <use x="223.339844" xlink:href="#MicrosoftYaHei-Bold-49"/>
       <use x="285.009766" xlink:href="#MicrosoftYaHei-Bold-50"/>
       <use x="346.679688" xlink:href="#MicrosoftYaHei-Bold-20998"/>
      </g>
     </g>
    </g>
    <g id="xtick_6">
     <g id="line2d_11">
      <path clip-path="url(#p88035e73b4)" d="M 358.611154 512.64 
L 358.611154 69.12 
" style="fill:none;stroke:#b0b0b0;stroke-linecap:square;stroke-width:0.8;"/>
     </g>
     <g id="line2d_12">
      <g>
       <use style="stroke:#000000;stroke-width:0.8;" x="358.611154" xlink:href="#m9208a4f27a" y="512.64"/>
      </g>
     </g>
     <g id="text_6">
      <!-- 10点15分 -->
      <defs>
       <path d="M 8.453125 1.953125 
L 8.453125 15.578125 
Q 16.3125 10.796875 25.203125 10.796875 
Q 31.890625 10.796875 35.671875 14.09375 
Q 39.453125 17.390625 39.453125 23 
Q 39.453125 34.765625 23.34375 34.765625 
Q 17.390625 34.765625 9.625 33.890625 
L 12.453125 75.640625 
L 52.484375 75.640625 
L 52.484375 62.640625 
L 25.203125 62.640625 
L 24.125 46.734375 
Q 28.171875 47.078125 31.59375 47.078125 
Q 42.671875 47.078125 49.09375 41.015625 
Q 55.515625 34.96875 55.515625 24.609375 
Q 55.515625 13.1875 47.75 5.9375 
Q 39.984375 -1.3125 26.65625 -1.3125 
Q 15.875 -1.3125 8.453125 1.953125 
z
" id="MicrosoftYaHei-Bold-53"/>
      </defs>
      <g transform="translate(344.765671 556.878011)rotate(-45)scale(0.1 -0.1)">
       <use xlink:href="#MicrosoftYaHei-Bold-49"/>
       <use x="61.669922" xlink:href="#MicrosoftYaHei-Bold-48"/>
       <use x="123.339844" xlink:href="#MicrosoftYaHei-Bold-28857"/>
       <use x="223.339844" xlink:href="#MicrosoftYaHei-Bold-49"/>
       <use x="285.009766" xlink:href="#MicrosoftYaHei-Bold-53"/>
       <use x="346.679688" xlink:href="#MicrosoftYaHei-Bold-20998"/>
      </g>
     </g>
    </g>
    <g id="xtick_7">
     <g id="line2d_13">
      <path clip-path="url(#p88035e73b4)" d="M 384.18793 512.64 
L 384.18793 69.12 
" style="fill:none;stroke:#b0b0b0;stroke-linecap:square;stroke-width:0.8;"/>
     </g>
     <g id="line2d_14">
      <g>
       <use style="stroke:#000000;stroke-width:0.8;" x="384.18793" xlink:href="#m9208a4f27a" y="512.64"/>
      </g>
     </g>
     <g id="text_7">
      <!-- 10点18分 -->
      <defs>
       <path d="M 4.203125 20.359375 
Q 4.203125 26.953125 8 32.078125 
Q 11.8125 37.203125 19.046875 39.59375 
Q 13.28125 42.484375 10.125 46.921875 
Q 6.984375 51.375 6.984375 56.78125 
Q 6.984375 62.453125 10.078125 67.0625 
Q 13.1875 71.6875 18.75 74.296875 
Q 24.3125 76.90625 31.203125 76.90625 
Q 38.140625 76.90625 43.75 74.34375 
Q 49.359375 71.78125 52.484375 67.15625 
Q 55.609375 62.546875 55.609375 56.984375 
Q 55.609375 51.703125 52.171875 47.15625 
Q 48.734375 42.625 42.921875 39.984375 
Q 50 37.546875 53.953125 32.4375 
Q 57.90625 27.34375 57.90625 20.515625 
Q 57.90625 10.890625 50.4375 4.828125 
Q 42.96875 -1.21875 31.0625 -1.21875 
Q 19.140625 -1.21875 11.671875 4.828125 
Q 4.203125 10.890625 4.203125 20.359375 
z
M 19.96875 21.78125 
Q 19.96875 16.5 23 13.328125 
Q 26.03125 10.15625 31.109375 10.15625 
Q 35.984375 10.15625 39.109375 13.328125 
Q 42.234375 16.5 42.234375 21.78125 
Q 42.234375 26.703125 39.0625 30 
Q 35.890625 33.296875 31.109375 33.296875 
Q 26.171875 33.296875 23.0625 30 
Q 19.96875 26.703125 19.96875 21.78125 
z
M 22.3125 55.171875 
Q 22.3125 51.03125 24.875 48.078125 
Q 27.4375 45.125 31.34375 45.125 
Q 35.109375 45.125 37.734375 48 
Q 40.375 50.875 40.375 55.171875 
Q 40.375 59.46875 37.8125 62.453125 
Q 35.25 65.4375 31.34375 65.4375 
Q 27.34375 65.4375 24.828125 62.453125 
Q 22.3125 59.46875 22.3125 55.171875 
z
" id="MicrosoftYaHei-Bold-56"/>
      </defs>
      <g transform="translate(370.342447 556.878011)rotate(-45)scale(0.1 -0.1)">
       <use xlink:href="#MicrosoftYaHei-Bold-49"/>
       <use x="61.669922" xlink:href="#MicrosoftYaHei-Bold-48"/>
       <use x="123.339844" xlink:href="#MicrosoftYaHei-Bold-28857"/>
       <use x="223.339844" xlink:href="#MicrosoftYaHei-Bold-49"/>
       <use x="285.009766" xlink:href="#MicrosoftYaHei-Bold-56"/>
       <use x="346.679688" xlink:href="#MicrosoftYaHei-Bold-20998"/>
      </g>
     </g>
    </g>
    <g id="xtick_8">
     <g id="line2d_15">
      <path clip-path="url(#p88035e73b4)" d="M 409.764706 512.64 
L 409.764706 69.12 
" style="fill:none;stroke:#b0b0b0;stroke-linecap:square;stroke-width:0.8;"/>
     </g>
     <g id="line2d_16">
      <g>
       <use style="stroke:#000000;stroke-width:0.8;" x="409.764706" xlink:href="#m9208a4f27a" y="512.64"/>
      </g>
     </g>
     <g id="text_8">
      <!-- 10点21分 -->
      <g transform="translate(395.919224 556.878011)rotate(-45)scale(0.1 -0.1)">
       <use xlink:href="#MicrosoftYaHei-Bold-49"/>
       <use x="61.669922" xlink:href="#MicrosoftYaHei-Bold-48"/>
       <use x="123.339844" xlink:href="#MicrosoftYaHei-Bold-28857"/>
       <use x="223.339844" xlink:href="#MicrosoftYaHei-Bold-50"/>
       <use x="285.009766" xlink:href="#MicrosoftYaHei-Bold-49"/>
       <use x="346.679688" xlink:href="#MicrosoftYaHei-Bold-20998"/>
      </g>
     </g>
    </g>
    <g id="xtick_9">
     <g id="line2d_17">
      <path clip-path="url(#p88035e73b4)" d="M 435.341482 512.64 
L 435.341482 69.12 
" style="fill:none;stroke:#b0b0b0;stroke-linecap:square;stroke-width:0.8;"/>
     </g>
     <g id="line2d_18">
      <g>
       <use style="stroke:#000000;stroke-width:0.8;" x="435.341482" xlink:href="#m9208a4f27a" y="512.64"/>
      </g>
     </g>
     <g id="text_9">
      <!-- 10点24分 -->
      <defs>
       <path d="M 49.75 75.640625 
L 49.75 27.59375 
L 60.453125 27.59375 
L 60.453125 16.109375 
L 49.75 16.109375 
L 49.75 0 
L 35.40625 0 
L 35.40625 16.109375 
L 1.609375 16.109375 
L 1.609375 27.6875 
Q 12.109375 39.40625 21.28125 52.484375 
Q 30.46875 65.578125 35.15625 75.640625 
z
M 15.578125 27.59375 
L 35.40625 27.59375 
L 35.40625 55.328125 
Q 33.0625 50.921875 28.6875 44.671875 
Q 24.3125 38.421875 15.578125 27.59375 
z
" id="MicrosoftYaHei-Bold-52"/>
      </defs>
      <g transform="translate(421.496 556.878011)rotate(-45)scale(0.1 -0.1)">
       <use xlink:href="#MicrosoftYaHei-Bold-49"/>
       <use x="61.669922" xlink:href="#MicrosoftYaHei-Bold-48"/>
       <use x="123.339844" xlink:href="#MicrosoftYaHei-Bold-28857"/>
       <use x="223.339844" xlink:href="#MicrosoftYaHei-Bold-50"/>
       <use x="285.009766" xlink:href="#MicrosoftYaHei-Bold-52"/>
       <use x="346.679688" xlink:href="#MicrosoftYaHei-Bold-20998"/>
      </g>
     </g>
    </g>
    <g id="xtick_10">
     <g id="line2d_19">
      <path clip-path="url(#p88035e73b4)" d="M 460.918258 512.64 
L 460.918258 69.12 
" style="fill:none;stroke:#b0b0b0;stroke-linecap:square;stroke-width:0.8;"/>
     </g>
     <g id="line2d_20">
      <g>
       <use style="stroke:#000000;stroke-width:0.8;" x="460.918258" xlink:href="#m9208a4f27a" y="512.64"/>
      </g>
     </g>
     <g id="text_10">
      <!-- 10点27分 -->
      <defs>
       <path d="M 57.421875 66.015625 
Q 48.25 49.5625 43.71875 39.5 
Q 39.203125 29.4375 36.375 19.921875 
Q 33.546875 10.40625 32.03125 0 
L 15.09375 0 
Q 17.53125 14.796875 23.703125 29.953125 
Q 29.890625 45.125 40.765625 62.640625 
L 4.6875 62.640625 
L 4.6875 75.640625 
L 57.421875 75.640625 
z
" id="MicrosoftYaHei-Bold-55"/>
      </defs>
      <g transform="translate(447.072776 556.878011)rotate(-45)scale(0.1 -0.1)">
       <use xlink:href="#MicrosoftYaHei-Bold-49"/>
       <use x="61.669922" xlink:href="#MicrosoftYaHei-Bold-48"/>
       <use x="123.339844" xlink:href="#MicrosoftYaHei-Bold-28857"/>
       <use x="223.339844" xlink:href="#MicrosoftYaHei-Bold-50"/>
       <use x="285.009766" xlink:href="#MicrosoftYaHei-Bold-55"/>
       <use x="346.679688" xlink:href="#MicrosoftYaHei-Bold-20998"/>
      </g>
     </g>
    </g>
    <g id="xtick_11">
     <g id="line2d_21">
      <path clip-path="url(#p88035e73b4)" d="M 486.495034 512.64 
L 486.495034 69.12 
" style="fill:none;stroke:#b0b0b0;stroke-linecap:square;stroke-width:0.8;"/>
     </g>
     <g id="line2d_22">
      <g>
       <use style="stroke:#000000;stroke-width:0.8;" x="486.495034" xlink:href="#m9208a4f27a" y="512.64"/>
      </g>
     </g>
     <g id="text_11">
      <!-- 10点30分 -->
      <g transform="translate(472.649552 556.878011)rotate(-45)scale(0.1 -0.1)">
       <use xlink:href="#MicrosoftYaHei-Bold-49"/>
       <use x="61.669922" xlink:href="#MicrosoftYaHei-Bold-48"/>
       <use x="123.339844" xlink:href="#MicrosoftYaHei-Bold-28857"/>
       <use x="223.339844" xlink:href="#MicrosoftYaHei-Bold-51"/>
       <use x="285.009766" xlink:href="#MicrosoftYaHei-Bold-48"/>
       <use x="346.679688" xlink:href="#MicrosoftYaHei-Bold-20998"/>
      </g>
     </g>
    </g>
    <g id="xtick_12">
     <g id="line2d_23">
      <path clip-path="url(#p88035e73b4)" d="M 512.071811 512.64 
L 512.071811 69.12 
" style="fill:none;stroke:#b0b0b0;stroke-linecap:square;stroke-width:0.8;"/>
     </g>
     <g id="line2d_24">
      <g>
       <use style="stroke:#000000;stroke-width:0.8;" x="512.071811" xlink:href="#m9208a4f27a" y="512.64"/>
      </g>
     </g>
     <g id="text_12">
      <!-- 10点33分 -->
      <g transform="translate(498.226328 556.878011)rotate(-45)scale(0.1 -0.1)">
       <use xlink:href="#MicrosoftYaHei-Bold-49"/>
       <use x="61.669922" xlink:href="#MicrosoftYaHei-Bold-48"/>
       <use x="123.339844" xlink:href="#MicrosoftYaHei-Bold-28857"/>
       <use x="223.339844" xlink:href="#MicrosoftYaHei-Bold-51"/>
       <use x="285.009766" xlink:href="#MicrosoftYaHei-Bold-51"/>
       <use x="346.679688" xlink:href="#MicrosoftYaHei-Bold-20998"/>
      </g>
     </g>
    </g>
    <g id="xtick_13">
     <g id="line2d_25">
      <path clip-path="url(#p88035e73b4)" d="M 537.648587 512.64 
L 537.648587 69.12 
" style="fill:none;stroke:#b0b0b0;stroke-linecap:square;stroke-width:0.8;"/>
     </g>
     <g id="line2d_26">
      <g>
       <use style="stroke:#000000;stroke-width:0.8;" x="537.648587" xlink:href="#m9208a4f27a" y="512.64"/>
      </g>
     </g>
     <g id="text_13">
      <!-- 10点36分 -->
      <g transform="translate(523.803104 556.878011)rotate(-45)scale(0.1 -0.1)">
       <use xlink:href="#MicrosoftYaHei-Bold-49"/>
       <use x="61.669922" xlink:href="#MicrosoftYaHei-Bold-48"/>
       <use x="123.339844" xlink:href="#MicrosoftYaHei-Bold-28857"/>
       <use x="223.339844" xlink:href="#MicrosoftYaHei-Bold-51"/>
       <use x="285.009766" xlink:href="#MicrosoftYaHei-Bold-54"/>
       <use x="346.679688" xlink:href="#MicrosoftYaHei-Bold-20998"/>
      </g>
     </g>
    </g>
    <g id="xtick_14">
     <g id="line2d_27">
      <path clip-path="url(#p88035e73b4)" d="M 563.225363 512.64 
L 563.225363 69.12 
" style="fill:none;stroke:#b0b0b0;stroke-linecap:square;stroke-width:0.8;"/>
     </g>
     <g id="line2d_28">
      <g>
       <use style="stroke:#000000;stroke-width:0.8;" x="563.225363" xlink:href="#m9208a4f27a" y="512.64"/>
      </g>
     </g>
     <g id="text_14">
      <!-- 10点39分 -->
      <g transform="translate(549.379881 556.878011)rotate(-45)scale(0.1 -0.1)">
       <use xlink:href="#MicrosoftYaHei-Bold-49"/>
       <use x="61.669922" xlink:href="#MicrosoftYaHei-Bold-48"/>
       <use x="123.339844" xlink:href="#MicrosoftYaHei-Bold-28857"/>
       <use x="223.339844" xlink:href="#MicrosoftYaHei-Bold-51"/>
       <use x="285.009766" xlink:href="#MicrosoftYaHei-Bold-57"/>
       <use x="346.679688" xlink:href="#MicrosoftYaHei-Bold-20998"/>
      </g>
     </g>
    </g>
    <g id="xtick_15">
     <g id="line2d_29">
      <path clip-path="url(#p88035e73b4)" d="M 588.802139 512.64 
L 588.802139 69.12 
" style="fill:none;stroke:#b0b0b0;stroke-linecap:square;stroke-width:0.8;"/>
     </g>
     <g id="line2d_30">
      <g>
       <use style="stroke:#000000;stroke-width:0.8;" x="588.802139" xlink:href="#m9208a4f27a" y="512.64"/>
      </g>
     </g>
     <g id="text_15">
      <!-- 10点42分 -->
      <g transform="translate(574.956657 556.878011)rotate(-45)scale(0.1 -0.1)">
       <use xlink:href="#MicrosoftYaHei-Bold-49"/>
       <use x="61.669922" xlink:href="#MicrosoftYaHei-Bold-48"/>
       <use x="123.339844" xlink:href="#MicrosoftYaHei-Bold-28857"/>
       <use x="223.339844" xlink:href="#MicrosoftYaHei-Bold-52"/>
       <use x="285.009766" xlink:href="#MicrosoftYaHei-Bold-50"/>
       <use x="346.679688" xlink:href="#MicrosoftYaHei-Bold-20998"/>
      </g>
     </g>
    </g>
    <g id="xtick_16">
     <g id="line2d_31">
      <path clip-path="url(#p88035e73b4)" d="M 614.378915 512.64 
L 614.378915 69.12 
" style="fill:none;stroke:#b0b0b0;stroke-linecap:square;stroke-width:0.8;"/>
     </g>
     <g id="line2d_32">
      <g>
       <use style="stroke:#000000;stroke-width:0.8;" x="614.378915" xlink:href="#m9208a4f27a" y="512.64"/>
      </g>
     </g>
     <g id="text_16">
      <!-- 10点45分 -->
      <g transform="translate(600.533433 556.878011)rotate(-45)scale(0.1 -0.1)">
       <use xlink:href="#MicrosoftYaHei-Bold-49"/>
       <use x="61.669922" xlink:href="#MicrosoftYaHei-Bold-48"/>
       <use x="123.339844" xlink:href="#MicrosoftYaHei-Bold-28857"/>
       <use x="223.339844" xlink:href="#MicrosoftYaHei-Bold-52"/>
       <use x="285.009766" xlink:href="#MicrosoftYaHei-Bold-53"/>
       <use x="346.679688" xlink:href="#MicrosoftYaHei-Bold-20998"/>
      </g>
     </g>
    </g>
    <g id="xtick_17">
     <g id="line2d_33">
      <path clip-path="url(#p88035e73b4)" d="M 639.955691 512.64 
L 639.955691 69.12 
" style="fill:none;stroke:#b0b0b0;stroke-linecap:square;stroke-width:0.8;"/>
     </g>
     <g id="line2d_34">
      <g>
       <use style="stroke:#000000;stroke-width:0.8;" x="639.955691" xlink:href="#m9208a4f27a" y="512.64"/>
      </g>
     </g>
     <g id="text_17">
      <!-- 10点48分 -->
      <g transform="translate(626.110209 556.878011)rotate(-45)scale(0.1 -0.1)">
       <use xlink:href="#MicrosoftYaHei-Bold-49"/>
       <use x="61.669922" xlink:href="#MicrosoftYaHei-Bold-48"/>
       <use x="123.339844" xlink:href="#MicrosoftYaHei-Bold-28857"/>
       <use x="223.339844" xlink:href="#MicrosoftYaHei-Bold-52"/>
       <use x="285.009766" xlink:href="#MicrosoftYaHei-Bold-56"/>
       <use x="346.679688" xlink:href="#MicrosoftYaHei-Bold-20998"/>
      </g>
     </g>
    </g>
    <g id="xtick_18">
     <g id="line2d_35">
      <path clip-path="url(#p88035e73b4)" d="M 665.532468 512.64 
L 665.532468 69.12 
" style="fill:none;stroke:#b0b0b0;stroke-linecap:square;stroke-width:0.8;"/>
     </g>
     <g id="line2d_36">
      <g>
       <use style="stroke:#000000;stroke-width:0.8;" x="665.532468" xlink:href="#m9208a4f27a" y="512.64"/>
      </g>
     </g>
     <g id="text_18">
      <!-- 10点51分 -->
      <g transform="translate(651.686985 556.878011)rotate(-45)scale(0.1 -0.1)">
       <use xlink:href="#MicrosoftYaHei-Bold-49"/>
       <use x="61.669922" xlink:href="#MicrosoftYaHei-Bold-48"/>
       <use x="123.339844" xlink:href="#MicrosoftYaHei-Bold-28857"/>
       <use x="223.339844" xlink:href="#MicrosoftYaHei-Bold-53"/>
       <use x="285.009766" xlink:href="#MicrosoftYaHei-Bold-49"/>
       <use x="346.679688" xlink:href="#MicrosoftYaHei-Bold-20998"/>
      </g>
     </g>
    </g>
    <g id="xtick_19">
     <g id="line2d_37">
      <path clip-path="url(#p88035e73b4)" d="M 691.109244 512.64 
L 691.109244 69.12 
" style="fill:none;stroke:#b0b0b0;stroke-linecap:square;stroke-width:0.8;"/>
     </g>
     <g id="line2d_38">
      <g>
       <use style="stroke:#000000;stroke-width:0.8;" x="691.109244" xlink:href="#m9208a4f27a" y="512.64"/>
      </g>
     </g>
     <g id="text_19">
      <!-- 10点54分 -->
      <g transform="translate(677.263761 556.878011)rotate(-45)scale(0.1 -0.1)">
       <use xlink:href="#MicrosoftYaHei-Bold-49"/>
       <use x="61.669922" xlink:href="#MicrosoftYaHei-Bold-48"/>
       <use x="123.339844" xlink:href="#MicrosoftYaHei-Bold-28857"/>
       <use x="223.339844" xlink:href="#MicrosoftYaHei-Bold-53"/>
       <use x="285.009766" xlink:href="#MicrosoftYaHei-Bold-52"/>
       <use x="346.679688" xlink:href="#MicrosoftYaHei-Bold-20998"/>
      </g>
     </g>
    </g>
    <g id="xtick_20">
     <g id="line2d_39">
      <path clip-path="url(#p88035e73b4)" d="M 716.68602 512.64 
L 716.68602 69.12 
" style="fill:none;stroke:#b0b0b0;stroke-linecap:square;stroke-width:0.8;"/>
     </g>
     <g id="line2d_40">
      <g>
       <use style="stroke:#000000;stroke-width:0.8;" x="716.68602" xlink:href="#m9208a4f27a" y="512.64"/>
      </g>
     </g>
     <g id="text_20">
      <!-- 10点57分 -->
      <g transform="translate(702.840538 556.878011)rotate(-45)scale(0.1 -0.1)">
       <use xlink:href="#MicrosoftYaHei-Bold-49"/>
       <use x="61.669922" xlink:href="#MicrosoftYaHei-Bold-48"/>
       <use x="123.339844" xlink:href="#MicrosoftYaHei-Bold-28857"/>
       <use x="223.339844" xlink:href="#MicrosoftYaHei-Bold-53"/>
       <use x="285.009766" xlink:href="#MicrosoftYaHei-Bold-55"/>
       <use x="346.679688" xlink:href="#MicrosoftYaHei-Bold-20998"/>
      </g>
     </g>
    </g>
    <g id="xtick_21">
     <g id="line2d_41">
      <path clip-path="url(#p88035e73b4)" d="M 742.262796 512.64 
L 742.262796 69.12 
" style="fill:none;stroke:#b0b0b0;stroke-linecap:square;stroke-width:0.8;"/>
     </g>
     <g id="line2d_42">
      <g>
       <use style="stroke:#000000;stroke-width:0.8;" x="742.262796" xlink:href="#m9208a4f27a" y="512.64"/>
      </g>
     </g>
     <g id="text_21">
      <!-- 11点0分 -->
      <g transform="translate(730.597744 552.517151)rotate(-45)scale(0.1 -0.1)">
       <use xlink:href="#MicrosoftYaHei-Bold-49"/>
       <use x="61.669922" xlink:href="#MicrosoftYaHei-Bold-49"/>
       <use x="123.339844" xlink:href="#MicrosoftYaHei-Bold-28857"/>
       <use x="223.339844" xlink:href="#MicrosoftYaHei-Bold-48"/>
       <use x="285.009766" xlink:href="#MicrosoftYaHei-Bold-20998"/>
      </g>
     </g>
    </g>
    <g id="xtick_22">
     <g id="line2d_43">
      <path clip-path="url(#p88035e73b4)" d="M 767.839572 512.64 
L 767.839572 69.12 
" style="fill:none;stroke:#b0b0b0;stroke-linecap:square;stroke-width:0.8;"/>
     </g>
     <g id="line2d_44">
      <g>
       <use style="stroke:#000000;stroke-width:0.8;" x="767.839572" xlink:href="#m9208a4f27a" y="512.64"/>
      </g>
     </g>
     <g id="text_22">
      <!-- 11点3分 -->
      <g transform="translate(756.17452 552.517151)rotate(-45)scale(0.1 -0.1)">
       <use xlink:href="#MicrosoftYaHei-Bold-49"/>
       <use x="61.669922" xlink:href="#MicrosoftYaHei-Bold-49"/>
       <use x="123.339844" xlink:href="#MicrosoftYaHei-Bold-28857"/>
       <use x="223.339844" xlink:href="#MicrosoftYaHei-Bold-51"/>
       <use x="285.009766" xlink:href="#MicrosoftYaHei-Bold-20998"/>
      </g>
     </g>
    </g>
    <g id="xtick_23">
     <g id="line2d_45">
      <path clip-path="url(#p88035e73b4)" d="M 793.416348 512.64 
L 793.416348 69.12 
" style="fill:none;stroke:#b0b0b0;stroke-linecap:square;stroke-width:0.8;"/>
     </g>
     <g id="line2d_46">
      <g>
       <use style="stroke:#000000;stroke-width:0.8;" x="793.416348" xlink:href="#m9208a4f27a" y="512.64"/>
      </g>
     </g>
     <g id="text_23">
      <!-- 11点6分 -->
      <g transform="translate(781.751296 552.517151)rotate(-45)scale(0.1 -0.1)">
       <use xlink:href="#MicrosoftYaHei-Bold-49"/>
       <use x="61.669922" xlink:href="#MicrosoftYaHei-Bold-49"/>
       <use x="123.339844" xlink:href="#MicrosoftYaHei-Bold-28857"/>
       <use x="223.339844" xlink:href="#MicrosoftYaHei-Bold-54"/>
       <use x="285.009766" xlink:href="#MicrosoftYaHei-Bold-20998"/>
      </g>
     </g>
    </g>
    <g id="xtick_24">
     <g id="line2d_47">
      <path clip-path="url(#p88035e73b4)" d="M 818.993125 512.64 
L 818.993125 69.12 
" style="fill:none;stroke:#b0b0b0;stroke-linecap:square;stroke-width:0.8;"/>
     </g>
     <g id="line2d_48">
      <g>
       <use style="stroke:#000000;stroke-width:0.8;" x="818.993125" xlink:href="#m9208a4f27a" y="512.64"/>
      </g>
     </g>
     <g id="text_24">
      <!-- 11点9分 -->
      <g transform="translate(807.328072 552.517151)rotate(-45)scale(0.1 -0.1)">
       <use xlink:href="#MicrosoftYaHei-Bold-49"/>
       <use x="61.669922" xlink:href="#MicrosoftYaHei-Bold-49"/>
       <use x="123.339844" xlink:href="#MicrosoftYaHei-Bold-28857"/>
       <use x="223.339844" xlink:href="#MicrosoftYaHei-Bold-57"/>
       <use x="285.009766" xlink:href="#MicrosoftYaHei-Bold-20998"/>
      </g>
     </g>
    </g>
    <g id="xtick_25">
     <g id="line2d_49">
      <path clip-path="url(#p88035e73b4)" d="M 844.569901 512.64 
L 844.569901 69.12 
" style="fill:none;stroke:#b0b0b0;stroke-linecap:square;stroke-width:0.8;"/>
     </g>
     <g id="line2d_50">
      <g>
       <use style="stroke:#000000;stroke-width:0.8;" x="844.569901" xlink:href="#m9208a4f27a" y="512.64"/>
      </g>
     </g>
     <g id="text_25">
      <!-- 11点12分 -->
      <g transform="translate(830.724418 556.878011)rotate(-45)scale(0.1 -0.1)">
       <use xlink:href="#MicrosoftYaHei-Bold-49"/>
       <use x="61.669922" xlink:href="#MicrosoftYaHei-Bold-49"/>
       <use x="123.339844" xlink:href="#MicrosoftYaHei-Bold-28857"/>
       <use x="223.339844" xlink:href="#MicrosoftYaHei-Bold-49"/>
       <use x="285.009766" xlink:href="#MicrosoftYaHei-Bold-50"/>
       <use x="346.679688" xlink:href="#MicrosoftYaHei-Bold-20998"/>
      </g>
     </g>
    </g>
    <g id="xtick_26">
     <g id="line2d_51">
      <path clip-path="url(#p88035e73b4)" d="M 870.146677 512.64 
L 870.146677 69.12 
" style="fill:none;stroke:#b0b0b0;stroke-linecap:square;stroke-width:0.8;"/>
     </g>
     <g id="line2d_52">
      <g>
       <use style="stroke:#000000;stroke-width:0.8;" x="870.146677" xlink:href="#m9208a4f27a" y="512.64"/>
      </g>
     </g>
     <g id="text_26">
      <!-- 11点15分 -->
      <g transform="translate(856.301195 556.878011)rotate(-45)scale(0.1 -0.1)">
       <use xlink:href="#MicrosoftYaHei-Bold-49"/>
       <use x="61.669922" xlink:href="#MicrosoftYaHei-Bold-49"/>
       <use x="123.339844" xlink:href="#MicrosoftYaHei-Bold-28857"/>
       <use x="223.339844" xlink:href="#MicrosoftYaHei-Bold-49"/>
       <use x="285.009766" xlink:href="#MicrosoftYaHei-Bold-53"/>
       <use x="346.679688" xlink:href="#MicrosoftYaHei-Bold-20998"/>
      </g>
     </g>
    </g>
    <g id="xtick_27">
     <g id="line2d_53">
      <path clip-path="url(#p88035e73b4)" d="M 895.723453 512.64 
L 895.723453 69.12 
" style="fill:none;stroke:#b0b0b0;stroke-linecap:square;stroke-width:0.8;"/>
     </g>
     <g id="line2d_54">
      <g>
       <use style="stroke:#000000;stroke-width:0.8;" x="895.723453" xlink:href="#m9208a4f27a" y="512.64"/>
      </g>
     </g>
     <g id="text_27">
      <!-- 11点18分 -->
      <g transform="translate(881.877971 556.878011)rotate(-45)scale(0.1 -0.1)">
       <use xlink:href="#MicrosoftYaHei-Bold-49"/>
       <use x="61.669922" xlink:href="#MicrosoftYaHei-Bold-49"/>
       <use x="123.339844" xlink:href="#MicrosoftYaHei-Bold-28857"/>
       <use x="223.339844" xlink:href="#MicrosoftYaHei-Bold-49"/>
       <use x="285.009766" xlink:href="#MicrosoftYaHei-Bold-56"/>
       <use x="346.679688" xlink:href="#MicrosoftYaHei-Bold-20998"/>
      </g>
     </g>
    </g>
    <g id="xtick_28">
     <g id="line2d_55">
      <path clip-path="url(#p88035e73b4)" d="M 921.300229 512.64 
L 921.300229 69.12 
" style="fill:none;stroke:#b0b0b0;stroke-linecap:square;stroke-width:0.8;"/>
     </g>
     <g id="line2d_56">
      <g>
       <use style="stroke:#000000;stroke-width:0.8;" x="921.300229" xlink:href="#m9208a4f27a" y="512.64"/>
      </g>
     </g>
     <g id="text_28">
      <!-- 11点21分 -->
      <g transform="translate(907.454747 556.878011)rotate(-45)scale(0.1 -0.1)">
       <use xlink:href="#MicrosoftYaHei-Bold-49"/>
       <use x="61.669922" xlink:href="#MicrosoftYaHei-Bold-49"/>
       <use x="123.339844" xlink:href="#MicrosoftYaHei-Bold-28857"/>
       <use x="223.339844" xlink:href="#MicrosoftYaHei-Bold-50"/>
       <use x="285.009766" xlink:href="#MicrosoftYaHei-Bold-49"/>
       <use x="346.679688" xlink:href="#MicrosoftYaHei-Bold-20998"/>
      </g>
     </g>
    </g>
    <g id="xtick_29">
     <g id="line2d_57">
      <path clip-path="url(#p88035e73b4)" d="M 946.877005 512.64 
L 946.877005 69.12 
" style="fill:none;stroke:#b0b0b0;stroke-linecap:square;stroke-width:0.8;"/>
     </g>
     <g id="line2d_58">
      <g>
       <use style="stroke:#000000;stroke-width:0.8;" x="946.877005" xlink:href="#m9208a4f27a" y="512.64"/>
      </g>
     </g>
     <g id="text_29">
      <!-- 11点24分 -->
      <g transform="translate(933.031523 556.878011)rotate(-45)scale(0.1 -0.1)">
       <use xlink:href="#MicrosoftYaHei-Bold-49"/>
       <use x="61.669922" xlink:href="#MicrosoftYaHei-Bold-49"/>
       <use x="123.339844" xlink:href="#MicrosoftYaHei-Bold-28857"/>
       <use x="223.339844" xlink:href="#MicrosoftYaHei-Bold-50"/>
       <use x="285.009766" xlink:href="#MicrosoftYaHei-Bold-52"/>
       <use x="346.679688" xlink:href="#MicrosoftYaHei-Bold-20998"/>
      </g>
     </g>
    </g>
    <g id="xtick_30">
     <g id="line2d_59">
      <path clip-path="url(#p88035e73b4)" d="M 972.453782 512.64 
L 972.453782 69.12 
" style="fill:none;stroke:#b0b0b0;stroke-linecap:square;stroke-width:0.8;"/>
     </g>
     <g id="line2d_60">
      <g>
       <use style="stroke:#000000;stroke-width:0.8;" x="972.453782" xlink:href="#m9208a4f27a" y="512.64"/>
      </g>
     </g>
     <g id="text_30">
      <!-- 11点27分 -->
      <g transform="translate(958.608299 556.878011)rotate(-45)scale(0.1 -0.1)">
       <use xlink:href="#MicrosoftYaHei-Bold-49"/>
       <use x="61.669922" xlink:href="#MicrosoftYaHei-Bold-49"/>
       <use x="123.339844" xlink:href="#MicrosoftYaHei-Bold-28857"/>
       <use x="223.339844" xlink:href="#MicrosoftYaHei-Bold-50"/>
       <use x="285.009766" xlink:href="#MicrosoftYaHei-Bold-55"/>
       <use x="346.679688" xlink:href="#MicrosoftYaHei-Bold-20998"/>
      </g>
     </g>
    </g>
    <g id="xtick_31">
     <g id="line2d_61">
      <path clip-path="url(#p88035e73b4)" d="M 998.030558 512.64 
L 998.030558 69.12 
" style="fill:none;stroke:#b0b0b0;stroke-linecap:square;stroke-width:0.8;"/>
     </g>
     <g id="line2d_62">
      <g>
       <use style="stroke:#000000;stroke-width:0.8;" x="998.030558" xlink:href="#m9208a4f27a" y="512.64"/>
      </g>
     </g>
     <g id="text_31">
      <!-- 11点30分 -->
      <g transform="translate(984.185075 556.878011)rotate(-45)scale(0.1 -0.1)">
       <use xlink:href="#MicrosoftYaHei-Bold-49"/>
       <use x="61.669922" xlink:href="#MicrosoftYaHei-Bold-49"/>
       <use x="123.339844" xlink:href="#MicrosoftYaHei-Bold-28857"/>
       <use x="223.339844" xlink:href="#MicrosoftYaHei-Bold-51"/>
       <use x="285.009766" xlink:href="#MicrosoftYaHei-Bold-48"/>
       <use x="346.679688" xlink:href="#MicrosoftYaHei-Bold-20998"/>
      </g>
     </g>
    </g>
    <g id="xtick_32">
     <g id="line2d_63">
      <path clip-path="url(#p88035e73b4)" d="M 1023.607334 512.64 
L 1023.607334 69.12 
" style="fill:none;stroke:#b0b0b0;stroke-linecap:square;stroke-width:0.8;"/>
     </g>
     <g id="line2d_64">
      <g>
       <use style="stroke:#000000;stroke-width:0.8;" x="1023.607334" xlink:href="#m9208a4f27a" y="512.64"/>
      </g>
     </g>
     <g id="text_32">
      <!-- 11点33分 -->
      <g transform="translate(1009.761852 556.878011)rotate(-45)scale(0.1 -0.1)">
       <use xlink:href="#MicrosoftYaHei-Bold-49"/>
       <use x="61.669922" xlink:href="#MicrosoftYaHei-Bold-49"/>
       <use x="123.339844" xlink:href="#MicrosoftYaHei-Bold-28857"/>
       <use x="223.339844" xlink:href="#MicrosoftYaHei-Bold-51"/>
       <use x="285.009766" xlink:href="#MicrosoftYaHei-Bold-51"/>
       <use x="346.679688" xlink:href="#MicrosoftYaHei-Bold-20998"/>
      </g>
     </g>
    </g>
    <g id="xtick_33">
     <g id="line2d_65">
      <path clip-path="url(#p88035e73b4)" d="M 1049.18411 512.64 
L 1049.18411 69.12 
" style="fill:none;stroke:#b0b0b0;stroke-linecap:square;stroke-width:0.8;"/>
     </g>
     <g id="line2d_66">
      <g>
       <use style="stroke:#000000;stroke-width:0.8;" x="1049.18411" xlink:href="#m9208a4f27a" y="512.64"/>
      </g>
     </g>
     <g id="text_33">
      <!-- 11点36分 -->
      <g transform="translate(1035.338628 556.878011)rotate(-45)scale(0.1 -0.1)">
       <use xlink:href="#MicrosoftYaHei-Bold-49"/>
       <use x="61.669922" xlink:href="#MicrosoftYaHei-Bold-49"/>
       <use x="123.339844" xlink:href="#MicrosoftYaHei-Bold-28857"/>
       <use x="223.339844" xlink:href="#MicrosoftYaHei-Bold-51"/>
       <use x="285.009766" xlink:href="#MicrosoftYaHei-Bold-54"/>
       <use x="346.679688" xlink:href="#MicrosoftYaHei-Bold-20998"/>
      </g>
     </g>
    </g>
    <g id="xtick_34">
     <g id="line2d_67">
      <path clip-path="url(#p88035e73b4)" d="M 1074.760886 512.64 
L 1074.760886 69.12 
" style="fill:none;stroke:#b0b0b0;stroke-linecap:square;stroke-width:0.8;"/>
     </g>
     <g id="line2d_68">
      <g>
       <use style="stroke:#000000;stroke-width:0.8;" x="1074.760886" xlink:href="#m9208a4f27a" y="512.64"/>
      </g>
     </g>
     <g id="text_34">
      <!-- 11点39分 -->
      <g transform="translate(1060.915404 556.878011)rotate(-45)scale(0.1 -0.1)">
       <use xlink:href="#MicrosoftYaHei-Bold-49"/>
       <use x="61.669922" xlink:href="#MicrosoftYaHei-Bold-49"/>
       <use x="123.339844" xlink:href="#MicrosoftYaHei-Bold-28857"/>
       <use x="223.339844" xlink:href="#MicrosoftYaHei-Bold-51"/>
       <use x="285.009766" xlink:href="#MicrosoftYaHei-Bold-57"/>
       <use x="346.679688" xlink:href="#MicrosoftYaHei-Bold-20998"/>
      </g>
     </g>
    </g>
    <g id="xtick_35">
     <g id="line2d_69">
      <path clip-path="url(#p88035e73b4)" d="M 1100.337662 512.64 
L 1100.337662 69.12 
" style="fill:none;stroke:#b0b0b0;stroke-linecap:square;stroke-width:0.8;"/>
     </g>
     <g id="line2d_70">
      <g>
       <use style="stroke:#000000;stroke-width:0.8;" x="1100.337662" xlink:href="#m9208a4f27a" y="512.64"/>
      </g>
     </g>
     <g id="text_35">
      <!-- 11点42分 -->
      <g transform="translate(1086.49218 556.878011)rotate(-45)scale(0.1 -0.1)">
       <use xlink:href="#MicrosoftYaHei-Bold-49"/>
       <use x="61.669922" xlink:href="#MicrosoftYaHei-Bold-49"/>
       <use x="123.339844" xlink:href="#MicrosoftYaHei-Bold-28857"/>
       <use x="223.339844" xlink:href="#MicrosoftYaHei-Bold-52"/>
       <use x="285.009766" xlink:href="#MicrosoftYaHei-Bold-50"/>
       <use x="346.679688" xlink:href="#MicrosoftYaHei-Bold-20998"/>
      </g>
     </g>
    </g>
    <g id="xtick_36">
     <g id="line2d_71">
      <path clip-path="url(#p88035e73b4)" d="M 1125.914439 512.64 
L 1125.914439 69.12 
" style="fill:none;stroke:#b0b0b0;stroke-linecap:square;stroke-width:0.8;"/>
     </g>
     <g id="line2d_72">
      <g>
       <use style="stroke:#000000;stroke-width:0.8;" x="1125.914439" xlink:href="#m9208a4f27a" y="512.64"/>
      </g>
     </g>
     <g id="text_36">
      <!-- 11点45分 -->
      <g transform="translate(1112.068956 556.878011)rotate(-45)scale(0.1 -0.1)">
       <use xlink:href="#MicrosoftYaHei-Bold-49"/>
       <use x="61.669922" xlink:href="#MicrosoftYaHei-Bold-49"/>
       <use x="123.339844" xlink:href="#MicrosoftYaHei-Bold-28857"/>
       <use x="223.339844" xlink:href="#MicrosoftYaHei-Bold-52"/>
       <use x="285.009766" xlink:href="#MicrosoftYaHei-Bold-53"/>
       <use x="346.679688" xlink:href="#MicrosoftYaHei-Bold-20998"/>
      </g>
     </g>
    </g>
    <g id="xtick_37">
     <g id="line2d_73">
      <path clip-path="url(#p88035e73b4)" d="M 1151.491215 512.64 
L 1151.491215 69.12 
" style="fill:none;stroke:#b0b0b0;stroke-linecap:square;stroke-width:0.8;"/>
     </g>
     <g id="line2d_74">
      <g>
       <use style="stroke:#000000;stroke-width:0.8;" x="1151.491215" xlink:href="#m9208a4f27a" y="512.64"/>
      </g>
     </g>
     <g id="text_37">
      <!-- 11点48分 -->
      <g transform="translate(1137.645732 556.878011)rotate(-45)scale(0.1 -0.1)">
       <use xlink:href="#MicrosoftYaHei-Bold-49"/>
       <use x="61.669922" xlink:href="#MicrosoftYaHei-Bold-49"/>
       <use x="123.339844" xlink:href="#MicrosoftYaHei-Bold-28857"/>
       <use x="223.339844" xlink:href="#MicrosoftYaHei-Bold-52"/>
       <use x="285.009766" xlink:href="#MicrosoftYaHei-Bold-56"/>
       <use x="346.679688" xlink:href="#MicrosoftYaHei-Bold-20998"/>
      </g>
     </g>
    </g>
    <g id="xtick_38">
     <g id="line2d_75">
      <path clip-path="url(#p88035e73b4)" d="M 1177.067991 512.64 
L 1177.067991 69.12 
" style="fill:none;stroke:#b0b0b0;stroke-linecap:square;stroke-width:0.8;"/>
     </g>
     <g id="line2d_76">
      <g>
       <use style="stroke:#000000;stroke-width:0.8;" x="1177.067991" xlink:href="#m9208a4f27a" y="512.64"/>
      </g>
     </g>
     <g id="text_38">
      <!-- 11点51分 -->
      <g transform="translate(1163.222509 556.878011)rotate(-45)scale(0.1 -0.1)">
       <use xlink:href="#MicrosoftYaHei-Bold-49"/>
       <use x="61.669922" xlink:href="#MicrosoftYaHei-Bold-49"/>
       <use x="123.339844" xlink:href="#MicrosoftYaHei-Bold-28857"/>
       <use x="223.339844" xlink:href="#MicrosoftYaHei-Bold-53"/>
       <use x="285.009766" xlink:href="#MicrosoftYaHei-Bold-49"/>
       <use x="346.679688" xlink:href="#MicrosoftYaHei-Bold-20998"/>
      </g>
     </g>
    </g>
    <g id="xtick_39">
     <g id="line2d_77">
      <path clip-path="url(#p88035e73b4)" d="M 1202.644767 512.64 
L 1202.644767 69.12 
" style="fill:none;stroke:#b0b0b0;stroke-linecap:square;stroke-width:0.8;"/>
     </g>
     <g id="line2d_78">
      <g>
       <use style="stroke:#000000;stroke-width:0.8;" x="1202.644767" xlink:href="#m9208a4f27a" y="512.64"/>
      </g>
     </g>
     <g id="text_39">
      <!-- 11点54分 -->
      <g transform="translate(1188.799285 556.878011)rotate(-45)scale(0.1 -0.1)">
       <use xlink:href="#MicrosoftYaHei-Bold-49"/>
       <use x="61.669922" xlink:href="#MicrosoftYaHei-Bold-49"/>
       <use x="123.339844" xlink:href="#MicrosoftYaHei-Bold-28857"/>
       <use x="223.339844" xlink:href="#MicrosoftYaHei-Bold-53"/>
       <use x="285.009766" xlink:href="#MicrosoftYaHei-Bold-52"/>
       <use x="346.679688" xlink:href="#MicrosoftYaHei-Bold-20998"/>
      </g>
     </g>
    </g>
    <g id="xtick_40">
     <g id="line2d_79">
      <path clip-path="url(#p88035e73b4)" d="M 1228.221543 512.64 
L 1228.221543 69.12 
" style="fill:none;stroke:#b0b0b0;stroke-linecap:square;stroke-width:0.8;"/>
     </g>
     <g id="line2d_80">
      <g>
       <use style="stroke:#000000;stroke-width:0.8;" x="1228.221543" xlink:href="#m9208a4f27a" y="512.64"/>
      </g>
     </g>
     <g id="text_40">
      <!-- 11点57分 -->
      <g transform="translate(1214.376061 556.878011)rotate(-45)scale(0.1 -0.1)">
       <use xlink:href="#MicrosoftYaHei-Bold-49"/>
       <use x="61.669922" xlink:href="#MicrosoftYaHei-Bold-49"/>
       <use x="123.339844" xlink:href="#MicrosoftYaHei-Bold-28857"/>
       <use x="223.339844" xlink:href="#MicrosoftYaHei-Bold-53"/>
       <use x="285.009766" xlink:href="#MicrosoftYaHei-Bold-55"/>
       <use x="346.679688" xlink:href="#MicrosoftYaHei-Bold-20998"/>
      </g>
     </g>
    </g>
    <g id="text_41">
     <!-- 时间 -->
     <defs>
      <path d="M 5.375 73.875 
L 39.0625 73.875 
L 39.0625 -5.71875 
L 31.34375 -5.71875 
L 31.34375 2.390625 
L 13.09375 2.390625 
L 13.09375 -6.890625 
L 5.375 -6.890625 
z
M 42.28125 61.578125 
L 76.953125 61.578125 
L 76.953125 83.15625 
L 84.765625 83.15625 
L 84.765625 61.578125 
L 98.640625 61.578125 
L 98.640625 54.34375 
L 84.765625 54.34375 
L 84.765625 1.8125 
Q 84.765625 -11.28125 72.265625 -11.28125 
Q 66.609375 -11.28125 55.671875 -10.984375 
Q 55.171875 -7.46875 54.109375 -2.78125 
Q 64.359375 -3.5625 70.125 -3.5625 
Q 76.953125 -3.5625 76.953125 3.375 
L 76.953125 54.34375 
L 42.28125 54.34375 
z
M 13.09375 9.625 
L 31.34375 9.625 
L 31.34375 34.90625 
L 13.09375 34.90625 
z
M 31.34375 66.65625 
L 13.09375 66.65625 
L 13.09375 41.9375 
L 31.34375 41.9375 
z
M 53.21875 44.96875 
Q 61.03125 30.71875 65.046875 22.21875 
Q 62.5 21.046875 57.234375 18.3125 
Q 53.421875 27.59375 46.296875 41.453125 
z
" id="MicrosoftYaHei-26102"/>
      <path d="M 29.109375 56.984375 
L 70.515625 56.984375 
L 70.515625 8.640625 
L 36.140625 8.640625 
L 36.140625 2.59375 
L 29.109375 2.59375 
z
M 37.3125 69.578125 
L 37.3125 76.90625 
L 93.953125 76.90625 
L 93.953125 -0.4375 
Q 93.953125 -12.75 79.984375 -12.75 
Q 74.3125 -12.75 65.140625 -12.546875 
Q 64.75 -9.625 63.578125 -4.640625 
Q 71.6875 -5.21875 79 -5.21875 
Q 86.328125 -5.21875 86.328125 1.90625 
L 86.328125 69.578125 
z
M 6.546875 63.8125 
L 14.15625 63.8125 
L 14.15625 -12.75 
L 6.546875 -12.75 
z
M 36.140625 15.578125 
L 63.484375 15.578125 
L 63.484375 29.4375 
L 36.140625 29.4375 
z
M 63.484375 50.046875 
L 36.140625 50.046875 
L 36.140625 36.375 
L 63.484375 36.375 
z
M 11.625 78.171875 
L 17.1875 83.15625 
Q 24.609375 76.125 30.953125 69.484375 
L 24.609375 63.921875 
Q 18.65625 70.953125 11.625 78.171875 
z
" id="MicrosoftYaHei-38388"/>
     </defs>
     <g transform="translate(728 570.629584)scale(0.1 -0.1)">
      <use xlink:href="#MicrosoftYaHei-26102"/>
      <use x="100" xlink:href="#MicrosoftYaHei-38388"/>
     </g>
    </g>
   </g>
   <g id="matplotlib.axis_2">
    <g id="ytick_1">
     <g id="line2d_81">
      <path clip-path="url(#p88035e73b4)" d="M 180 492.48 
L 1296 492.48 
" style="fill:none;stroke:#b0b0b0;stroke-linecap:square;stroke-width:0.8;"/>
     </g>
     <g id="line2d_82">
      <defs>
       <path d="M 0 0 
L -3.5 0 
" id="mdc84bc90b3" style="stroke:#000000;stroke-width:0.8;"/>
      </defs>
      <g>
       <use style="stroke:#000000;stroke-width:0.8;" x="180" xlink:href="#mdc84bc90b3" y="492.48"/>
      </g>
     </g>
     <g id="text_42">
      <!-- 24 -->
      <g transform="translate(160.665625 496.476875)scale(0.1 -0.1)">
       <use xlink:href="#MicrosoftYaHei-Bold-50"/>
       <use x="61.669922" xlink:href="#MicrosoftYaHei-Bold-52"/>
      </g>
     </g>
    </g>
    <g id="ytick_2">
     <g id="line2d_83">
      <path clip-path="url(#p88035e73b4)" d="M 180 434.88 
L 1296 434.88 
" style="fill:none;stroke:#b0b0b0;stroke-linecap:square;stroke-width:0.8;"/>
     </g>
     <g id="line2d_84">
      <g>
       <use style="stroke:#000000;stroke-width:0.8;" x="180" xlink:href="#mdc84bc90b3" y="434.88"/>
      </g>
     </g>
     <g id="text_43">
      <!-- 25 -->
      <g transform="translate(160.665625 438.876875)scale(0.1 -0.1)">
       <use xlink:href="#MicrosoftYaHei-Bold-50"/>
       <use x="61.669922" xlink:href="#MicrosoftYaHei-Bold-53"/>
      </g>
     </g>
    </g>
    <g id="ytick_3">
     <g id="line2d_85">
      <path clip-path="url(#p88035e73b4)" d="M 180 377.28 
L 1296 377.28 
" style="fill:none;stroke:#b0b0b0;stroke-linecap:square;stroke-width:0.8;"/>
     </g>
     <g id="line2d_86">
      <g>
       <use style="stroke:#000000;stroke-width:0.8;" x="180" xlink:href="#mdc84bc90b3" y="377.28"/>
      </g>
     </g>
     <g id="text_44">
      <!-- 26 -->
      <g transform="translate(160.665625 381.276875)scale(0.1 -0.1)">
       <use xlink:href="#MicrosoftYaHei-Bold-50"/>
       <use x="61.669922" xlink:href="#MicrosoftYaHei-Bold-54"/>
      </g>
     </g>
    </g>
    <g id="ytick_4">
     <g id="line2d_87">
      <path clip-path="url(#p88035e73b4)" d="M 180 319.68 
L 1296 319.68 
" style="fill:none;stroke:#b0b0b0;stroke-linecap:square;stroke-width:0.8;"/>
     </g>
     <g id="line2d_88">
      <g>
       <use style="stroke:#000000;stroke-width:0.8;" x="180" xlink:href="#mdc84bc90b3" y="319.68"/>
      </g>
     </g>
     <g id="text_45">
      <!-- 27 -->
      <g transform="translate(160.665625 323.676875)scale(0.1 -0.1)">
       <use xlink:href="#MicrosoftYaHei-Bold-50"/>
       <use x="61.669922" xlink:href="#MicrosoftYaHei-Bold-55"/>
      </g>
     </g>
    </g>
    <g id="ytick_5">
     <g id="line2d_89">
      <path clip-path="url(#p88035e73b4)" d="M 180 262.08 
L 1296 262.08 
" style="fill:none;stroke:#b0b0b0;stroke-linecap:square;stroke-width:0.8;"/>
     </g>
     <g id="line2d_90">
      <g>
       <use style="stroke:#000000;stroke-width:0.8;" x="180" xlink:href="#mdc84bc90b3" y="262.08"/>
      </g>
     </g>
     <g id="text_46">
      <!-- 28 -->
      <g transform="translate(160.665625 266.076875)scale(0.1 -0.1)">
       <use xlink:href="#MicrosoftYaHei-Bold-50"/>
       <use x="61.669922" xlink:href="#MicrosoftYaHei-Bold-56"/>
      </g>
     </g>
    </g>
    <g id="ytick_6">
     <g id="line2d_91">
      <path clip-path="url(#p88035e73b4)" d="M 180 204.48 
L 1296 204.48 
" style="fill:none;stroke:#b0b0b0;stroke-linecap:square;stroke-width:0.8;"/>
     </g>
     <g id="line2d_92">
      <g>
       <use style="stroke:#000000;stroke-width:0.8;" x="180" xlink:href="#mdc84bc90b3" y="204.48"/>
      </g>
     </g>
     <g id="text_47">
      <!-- 29 -->
      <g transform="translate(160.665625 208.476875)scale(0.1 -0.1)">
       <use xlink:href="#MicrosoftYaHei-Bold-50"/>
       <use x="61.669922" xlink:href="#MicrosoftYaHei-Bold-57"/>
      </g>
     </g>
    </g>
    <g id="ytick_7">
     <g id="line2d_93">
      <path clip-path="url(#p88035e73b4)" d="M 180 146.88 
L 1296 146.88 
" style="fill:none;stroke:#b0b0b0;stroke-linecap:square;stroke-width:0.8;"/>
     </g>
     <g id="line2d_94">
      <g>
       <use style="stroke:#000000;stroke-width:0.8;" x="180" xlink:href="#mdc84bc90b3" y="146.88"/>
      </g>
     </g>
     <g id="text_48">
      <!-- 30 -->
      <g transform="translate(160.665625 150.876875)scale(0.1 -0.1)">
       <use xlink:href="#MicrosoftYaHei-Bold-51"/>
       <use x="61.669922" xlink:href="#MicrosoftYaHei-Bold-48"/>
      </g>
     </g>
    </g>
    <g id="ytick_8">
     <g id="line2d_95">
      <path clip-path="url(#p88035e73b4)" d="M 180 89.28 
L 1296 89.28 
" style="fill:none;stroke:#b0b0b0;stroke-linecap:square;stroke-width:0.8;"/>
     </g>
     <g id="line2d_96">
      <g>
       <use style="stroke:#000000;stroke-width:0.8;" x="180" xlink:href="#mdc84bc90b3" y="89.28"/>
      </g>
     </g>
     <g id="text_49">
      <!-- 31 -->
      <g transform="translate(160.665625 93.276875)scale(0.1 -0.1)">
       <use xlink:href="#MicrosoftYaHei-Bold-51"/>
       <use x="61.669922" xlink:href="#MicrosoftYaHei-Bold-49"/>
      </g>
     </g>
    </g>
    <g id="text_50">
     <!-- 温度 -->
     <defs>
      <path d="M 20.796875 -1.703125 
L 30.375 -1.703125 
L 30.375 30.125 
L 91.40625 30.125 
L 91.40625 -1.703125 
L 98.640625 -1.703125 
L 98.640625 -8.734375 
L 20.796875 -8.734375 
z
M 34.078125 78.171875 
L 87.59375 78.171875 
L 87.59375 35.59375 
L 80.375 35.59375 
L 80.375 39.890625 
L 41.3125 39.890625 
L 41.3125 35.5 
L 34.078125 35.5 
z
M 41.3125 46.53125 
L 80.375 46.53125 
L 80.375 55.8125 
L 41.3125 55.8125 
z
M 80.375 71.53125 
L 41.3125 71.53125 
L 41.3125 62.25 
L 80.375 62.25 
z
M 13.671875 28.265625 
Q 17.671875 26.703125 21.6875 25.34375 
Q 17.578125 8.34375 12.703125 -12.359375 
L 4.109375 -9.8125 
Q 9.578125 7.5625 13.671875 28.265625 
z
M 83.984375 23.296875 
L 73.34375 23.296875 
L 73.34375 -1.703125 
L 83.984375 -1.703125 
z
M 55.5625 -1.703125 
L 66.109375 -1.703125 
L 66.109375 23.296875 
L 55.5625 23.296875 
z
M 37.796875 -1.703125 
L 48.34375 -1.703125 
L 48.34375 23.296875 
L 37.796875 23.296875 
z
M 6.25 56.59375 
Q 13.578125 51.421875 23.4375 43.3125 
Q 19.828125 39.203125 17.78125 36.96875 
Q 6.734375 46.828125 1.375 50.921875 
z
M 9.96875 81.890625 
Q 17.390625 76.03125 26.765625 67.625 
Q 23.4375 64.203125 21 61.578125 
Q 10.453125 71.828125 4.984375 76.515625 
z
" id="MicrosoftYaHei-28201"/>
      <path d="M 24.21875 19 
L 24.21875 25.4375 
L 85.453125 25.4375 
L 85.453125 19.09375 
Q 76.609375 9.578125 64.796875 2.546875 
Q 78.90625 -3.125 97.859375 -4.828125 
L 94.046875 -12.453125 
Q 72.265625 -9.421875 56.9375 -1.703125 
Q 40.625 -9.671875 19.53125 -13.53125 
Q 17.96875 -10.40625 15.53125 -6.5 
Q 34.859375 -3.46875 49.46875 2.59375 
Q 39.015625 9.375 32.28125 19 
z
M 21.296875 55.328125 
L 35.84375 55.328125 
L 35.84375 63.53125 
L 43.265625 63.53125 
L 43.265625 55.328125 
L 70.90625 55.328125 
L 70.90625 63.625 
L 78.328125 63.625 
L 78.328125 55.328125 
L 96.09375 55.328125 
L 96.09375 48.875 
L 78.328125 48.875 
L 78.328125 30.125 
L 70.90625 30.125 
L 70.90625 33.546875 
L 43.265625 33.546875 
L 43.265625 30.03125 
L 35.84375 30.03125 
L 35.84375 48.875 
L 21.296875 48.875 
z
M 47.265625 80.8125 
L 54.390625 84.234375 
Q 57.71875 79 61.078125 72.40625 
L 97.078125 72.40625 
L 97.078125 65.578125 
L 19.140625 65.578125 
L 19.140625 36.1875 
Q 19.140625 2.78125 6.15625 -13.625 
Q 3.71875 -10.40625 0.59375 -6.984375 
Q 11.328125 6.203125 11.53125 36.671875 
L 11.53125 72.40625 
L 52.046875 72.40625 
Q 49.8125 76.703125 47.265625 80.8125 
z
M 43.265625 39.796875 
L 70.90625 39.796875 
L 70.90625 48.875 
L 43.265625 48.875 
z
M 75.296875 19 
L 40.4375 19 
Q 47.359375 11.375 57.125 6.109375 
Q 67.71875 11.578125 75.296875 19 
z
" id="MicrosoftYaHei-24230"/>
     </defs>
     <g transform="translate(154.179688 300.88)rotate(-90)scale(0.1 -0.1)">
      <use xlink:href="#MicrosoftYaHei-28201"/>
      <use x="100" xlink:href="#MicrosoftYaHei-24230"/>
     </g>
    </g>
   </g>
   <g id="line2d_97">
    <path clip-path="url(#p88035e73b4)" d="M 230.727273 377.28 
L 239.252865 204.48 
L 247.778457 204.48 
L 256.304049 204.48 
L 264.829641 377.28 
L 273.355233 89.28 
L 281.880825 204.48 
L 290.406417 492.48 
L 298.932009 492.48 
L 307.457601 146.88 
L 315.983193 492.48 
L 324.508785 492.48 
L 333.034377 434.88 
L 341.559969 262.08 
L 350.085561 434.88 
L 358.611154 204.48 
L 367.136746 319.68 
L 375.662338 262.08 
L 384.18793 319.68 
L 392.713522 434.88 
L 401.239114 377.28 
L 409.764706 262.08 
L 418.290298 319.68 
L 426.81589 146.88 
L 435.341482 377.28 
L 443.867074 377.28 
L 452.392666 377.28 
L 460.918258 204.48 
L 469.44385 204.48 
L 477.969442 434.88 
L 486.495034 89.28 
L 495.020626 319.68 
L 503.546218 377.28 
L 512.071811 492.48 
L 520.597403 492.48 
L 529.122995 319.68 
L 537.648587 377.28 
L 546.174179 434.88 
L 554.699771 492.48 
L 563.225363 492.48 
L 571.750955 204.48 
L 580.276547 204.48 
L 588.802139 146.88 
L 597.327731 204.48 
L 605.853323 89.28 
L 614.378915 262.08 
L 622.904507 492.48 
L 631.430099 492.48 
L 639.955691 434.88 
L 648.481283 377.28 
L 657.006875 434.88 
L 665.532468 89.28 
L 674.05806 204.48 
L 682.583652 204.48 
L 691.109244 434.88 
L 699.634836 492.48 
L 708.160428 319.68 
L 716.68602 319.68 
L 725.211612 434.88 
L 733.737204 434.88 
L 742.262796 319.68 
L 750.788388 492.48 
L 759.31398 434.88 
L 767.839572 377.28 
L 776.365164 434.88 
L 784.890756 146.88 
L 793.416348 262.08 
L 801.94194 377.28 
L 810.467532 204.48 
L 818.993125 204.48 
L 827.518717 262.08 
L 836.044309 434.88 
L 844.569901 492.48 
L 853.095493 89.28 
L 861.621085 262.08 
L 870.146677 262.08 
L 878.672269 492.48 
L 887.197861 434.88 
L 895.723453 89.28 
L 904.249045 204.48 
L 912.774637 146.88 
L 921.300229 146.88 
L 929.825821 89.28 
L 938.351413 319.68 
L 946.877005 262.08 
L 955.402597 492.48 
L 963.928189 319.68 
L 972.453782 492.48 
L 980.979374 204.48 
L 989.504966 146.88 
L 998.030558 492.48 
L 1006.55615 89.28 
L 1015.081742 492.48 
L 1023.607334 262.08 
L 1032.132926 89.28 
L 1040.658518 319.68 
L 1049.18411 204.48 
L 1057.709702 377.28 
L 1066.235294 319.68 
L 1074.760886 319.68 
L 1083.286478 262.08 
L 1091.81207 204.48 
L 1100.337662 204.48 
L 1108.863254 492.48 
L 1117.388846 319.68 
L 1125.914439 492.48 
L 1134.440031 204.48 
L 1142.965623 204.48 
L 1151.491215 262.08 
L 1160.016807 319.68 
L 1168.542399 319.68 
L 1177.067991 262.08 
L 1185.593583 146.88 
L 1194.119175 319.68 
L 1202.644767 204.48 
L 1211.170359 377.28 
L 1219.695951 146.88 
L 1228.221543 89.28 
L 1236.747135 262.08 
L 1245.272727 262.08 
" style="fill:none;stroke:#1f77b4;stroke-linecap:square;stroke-width:1.5;"/>
   </g>
   <g id="line2d_98">
    <path clip-path="url(#p88035e73b4)" d="M 230.727273 319.68 
L 239.252865 262.08 
L 247.778457 146.88 
L 256.304049 377.28 
L 264.829641 146.88 
L 273.355233 262.08 
L 281.880825 146.88 
L 290.406417 319.68 
L 298.932009 434.88 
L 307.457601 319.68 
L 315.983193 434.88 
L 324.508785 89.28 
L 333.034377 262.08 
L 341.559969 204.48 
L 350.085561 319.68 
L 358.611154 89.28 
L 367.136746 146.88 
L 375.662338 377.28 
L 384.18793 377.28 
L 392.713522 492.48 
L 401.239114 146.88 
L 409.764706 89.28 
L 418.290298 89.28 
L 426.81589 319.68 
L 435.341482 262.08 
L 443.867074 434.88 
L 452.392666 434.88 
L 460.918258 204.48 
L 469.44385 146.88 
L 477.969442 204.48 
L 486.495034 434.88 
L 495.020626 146.88 
L 503.546218 319.68 
L 512.071811 204.48 
L 520.597403 434.88 
L 529.122995 492.48 
L 537.648587 89.28 
L 546.174179 492.48 
L 554.699771 146.88 
L 563.225363 262.08 
L 571.750955 434.88 
L 580.276547 204.48 
L 588.802139 492.48 
L 597.327731 204.48 
L 605.853323 204.48 
L 614.378915 377.28 
L 622.904507 262.08 
L 631.430099 434.88 
L 639.955691 89.28 
L 648.481283 146.88 
L 657.006875 262.08 
L 665.532468 377.28 
L 674.05806 434.88 
L 682.583652 204.48 
L 691.109244 204.48 
L 699.634836 89.28 
L 708.160428 434.88 
L 716.68602 492.48 
L 725.211612 492.48 
L 733.737204 146.88 
L 742.262796 492.48 
L 750.788388 89.28 
L 759.31398 89.28 
L 767.839572 204.48 
L 776.365164 262.08 
L 784.890756 319.68 
L 793.416348 204.48 
L 801.94194 204.48 
L 810.467532 492.48 
L 818.993125 492.48 
L 827.518717 434.88 
L 836.044309 146.88 
L 844.569901 434.88 
L 853.095493 262.08 
L 861.621085 204.48 
L 870.146677 492.48 
L 878.672269 89.28 
L 887.197861 204.48 
L 895.723453 492.48 
L 904.249045 262.08 
L 912.774637 434.88 
L 921.300229 492.48 
L 929.825821 146.88 
L 938.351413 89.28 
L 946.877005 89.28 
L 955.402597 319.68 
L 963.928189 262.08 
L 972.453782 319.68 
L 980.979374 146.88 
L 989.504966 319.68 
L 998.030558 204.48 
L 1006.55615 262.08 
L 1015.081742 492.48 
L 1023.607334 319.68 
L 1032.132926 146.88 
L 1040.658518 89.28 
L 1049.18411 319.68 
L 1057.709702 492.48 
L 1066.235294 319.68 
L 1074.760886 377.28 
L 1083.286478 146.88 
L 1091.81207 89.28 
L 1100.337662 377.28 
L 1108.863254 204.48 
L 1117.388846 377.28 
L 1125.914439 377.28 
L 1134.440031 89.28 
L 1142.965623 377.28 
L 1151.491215 377.28 
L 1160.016807 434.88 
L 1168.542399 434.88 
L 1177.067991 89.28 
L 1185.593583 204.48 
L 1194.119175 434.88 
L 1202.644767 319.68 
L 1211.170359 146.88 
L 1219.695951 89.28 
L 1228.221543 377.28 
L 1236.747135 377.28 
L 1245.272727 262.08 
" style="fill:none;stroke:#ff7f0e;stroke-linecap:square;stroke-width:1.5;"/>
   </g>
   <g id="patch_3">
    <path d="M 180 512.64 
L 180 69.12 
" style="fill:none;stroke:#000000;stroke-linecap:square;stroke-linejoin:miter;stroke-width:0.8;"/>
   </g>
   <g id="patch_4">
    <path d="M 1296 512.64 
L 1296 69.12 
" style="fill:none;stroke:#000000;stroke-linecap:square;stroke-linejoin:miter;stroke-width:0.8;"/>
   </g>
   <g id="patch_5">
    <path d="M 180 512.64 
L 1296 512.64 
" style="fill:none;stroke:#000000;stroke-linecap:square;stroke-linejoin:miter;stroke-width:0.8;"/>
   </g>
   <g id="patch_6">
    <path d="M 180 69.12 
L 1296 69.12 
" style="fill:none;stroke:#000000;stroke-linecap:square;stroke-linejoin:miter;stroke-width:0.8;"/>
   </g>
   <g id="text_51">
    <!-- demo -->
    <defs>
     <path d="M 55.421875 0 
L 45.84375 0 
L 45.84375 8.984375 
L 45.65625 8.984375 
Q 39.75 -1.265625 27.296875 -1.265625 
Q 17.046875 -1.265625 10.984375 6.03125 
Q 4.9375 13.328125 4.9375 25.734375 
Q 4.9375 39.109375 11.765625 47.1875 
Q 18.609375 55.28125 29.640625 55.28125 
Q 40.671875 55.28125 45.65625 46.6875 
L 45.84375 46.6875 
L 45.84375 79.9375 
L 55.421875 79.9375 
z
M 45.90625 32.125 
Q 45.90625 38.625 41.625 42.984375 
Q 37.359375 47.359375 31.109375 47.359375 
Q 23.484375 47.359375 19.09375 41.671875 
Q 14.703125 35.984375 14.703125 26.171875 
Q 14.703125 17.140625 18.921875 11.890625 
Q 23.140625 6.640625 30.171875 6.640625 
Q 37.109375 6.640625 41.5 11.78125 
Q 45.90625 16.9375 45.90625 24.609375 
z
" id="MicrosoftYaHei-100"/>
     <path d="M 52.546875 24.5625 
L 14.75 24.5625 
Q 14.984375 15.921875 19.46875 11.203125 
Q 23.96875 6.5 32.03125 6.5 
Q 41.109375 6.5 48.6875 12.3125 
L 48.6875 3.765625 
Q 41.546875 -1.265625 29.78125 -1.265625 
Q 18.0625 -1.265625 11.5 6.15625 
Q 4.9375 13.578125 4.9375 26.765625 
Q 4.9375 39.15625 12.140625 47.21875 
Q 19.34375 55.28125 30.03125 55.28125 
Q 40.625 55.28125 46.578125 48.46875 
Q 52.546875 41.65625 52.546875 29.390625 
z
M 42.96875 32.234375 
Q 42.921875 39.546875 39.5 43.546875 
Q 36.078125 47.5625 29.890625 47.5625 
Q 24.171875 47.5625 20 43.3125 
Q 15.828125 39.0625 14.75 32.234375 
z
" id="MicrosoftYaHei-101"/>
     <path d="M 86.28125 0 
L 76.703125 0 
L 76.703125 31 
Q 76.703125 39.796875 73.96875 43.578125 
Q 71.234375 47.359375 64.984375 47.359375 
Q 59.71875 47.359375 55.953125 42.421875 
Q 52.203125 37.5 52.203125 30.765625 
L 52.203125 0 
L 42.625 0 
L 42.625 31.984375 
Q 42.625 47.359375 30.765625 47.359375 
Q 25.296875 47.359375 21.703125 42.671875 
Q 18.109375 37.984375 18.109375 30.71875 
L 18.109375 0 
L 8.546875 0 
L 8.546875 54 
L 18.109375 54 
L 18.109375 45.453125 
L 18.3125 45.453125 
Q 24.078125 55.28125 35.15625 55.28125 
Q 40.578125 55.28125 44.71875 52.296875 
Q 48.875 49.3125 50.484375 44.234375 
Q 56.5 55.28125 68.453125 55.28125 
Q 86.28125 55.28125 86.28125 33.296875 
z
" id="MicrosoftYaHei-109"/>
     <path d="M 4.9375 26.421875 
Q 4.9375 39.796875 12.40625 47.53125 
Q 19.875 55.28125 32.671875 55.28125 
Q 44.828125 55.28125 51.734375 47.828125 
Q 58.640625 40.375 58.640625 27.25 
Q 58.640625 14.453125 51.265625 6.59375 
Q 43.890625 -1.265625 31.5 -1.265625 
Q 19.390625 -1.265625 12.15625 6.34375 
Q 4.9375 13.96875 4.9375 26.421875 
z
M 14.703125 26.703125 
Q 14.703125 17.390625 19.40625 12.015625 
Q 24.125 6.640625 32.078125 6.640625 
Q 40.28125 6.640625 44.578125 11.890625 
Q 48.875 17.140625 48.875 26.953125 
Q 48.875 36.8125 44.578125 42.078125 
Q 40.28125 47.359375 32.078125 47.359375 
Q 24.03125 47.359375 19.359375 41.84375 
Q 14.703125 36.328125 14.703125 26.703125 
z
" id="MicrosoftYaHei-111"/>
    </defs>
    <g transform="translate(721.320938 63.12)scale(0.12 -0.12)">
     <use xlink:href="#MicrosoftYaHei-100"/>
     <use x="63.964844" xlink:href="#MicrosoftYaHei-101"/>
     <use x="120.703125" xlink:href="#MicrosoftYaHei-109"/>
     <use x="214.404297" xlink:href="#MicrosoftYaHei-111"/>
    </g>
   </g>
  </g>
 </g>
 <defs>
  <clipPath id="p88035e73b4">
   <rect height="443.52" width="1116" x="180" y="69.12"/>
  </clipPath>
 </defs>
</svg>
